<svg width="15" height="15" viewBox="0 0 15 15" fill="none" xmlns="http://www.w3.org/2000/svg">
<path d="M0.8535 14.9375C0.629354 14.9375 0.441521 14.8617 0.29 14.71C0.138333 14.5585 0.0625 14.3706 0.0625 14.1465V12.6306C0.0625 12.4172 0.103479 12.2138 0.185437 12.0205C0.26725 11.8271 0.379979 11.6586 0.523625 11.5149L11.6042 0.439406C11.7365 0.319239 11.8825 0.226417 12.0423 0.160938C12.2023 0.0953125 12.37 0.0625 12.5455 0.0625C12.7209 0.0625 12.8908 0.0936358 13.0552 0.155907C13.2197 0.218178 13.3653 0.317197 13.492 0.452968L14.5606 1.53491C14.6964 1.66164 14.7931 1.80747 14.8509 1.97241C14.9086 2.13734 14.9375 2.30228 14.9375 2.46722C14.9375 2.64324 14.9075 2.81117 14.8474 2.971C14.7873 3.13098 14.6917 3.2771 14.5606 3.40937L3.48506 14.4764C3.34142 14.62 3.17291 14.7328 2.97953 14.8146C2.78616 14.8965 2.58279 14.9375 2.36944 14.9375H0.8535ZM12.358 3.73247L13.625 2.47378L12.5262 1.375L11.2675 2.642L12.358 3.73247Z" fill="white"/>
</svg>
