<svg width="304" height="79" viewBox="0 0 304 79" fill="none" xmlns="http://www.w3.org/2000/svg">
<path d="M91.559 51.4036C90.3263 51.4036 89.1758 51.2063 88.1074 50.8119C87.0555 50.4174 86.168 49.8011 85.4448 48.9628C84.738 48.1246 84.2778 47.0398 84.0642 45.7085H85.0503C85.4119 46.481 85.8886 47.1302 86.4803 47.6562C87.0719 48.1821 87.754 48.5766 88.5265 48.8396C89.3155 49.0861 90.1619 49.2094 91.0659 49.2094C92.0356 49.2094 92.7834 49.0204 93.3094 48.6423C93.8518 48.2643 94.123 47.7055 94.123 46.9659C94.123 46.4564 93.975 46.0537 93.6792 45.7578C93.3998 45.462 93.0135 45.2319 92.5205 45.0675C92.0438 44.9032 91.5261 44.7799 90.9673 44.6977L89.2415 44.4512C87.9595 44.2704 86.8008 43.9663 85.7653 43.539C84.7463 43.1116 83.9327 42.5199 83.3246 41.7639C82.7329 41.0078 82.437 40.0628 82.437 38.9287C82.437 37.7946 82.7082 36.866 83.2506 36.1428C83.793 35.4032 84.5244 34.8608 85.4448 34.5156C86.3816 34.1705 87.4335 33.9979 88.6005 33.9979C89.751 33.9979 90.8111 34.1869 91.7809 34.5649C92.7506 34.9265 93.5724 35.51 94.2462 36.3154C94.9201 37.1207 95.3639 38.1726 95.5776 39.4711H94.6654C94.2052 38.3534 93.4738 37.5316 92.4712 37.0057C91.4686 36.4633 90.3591 36.1921 89.1429 36.1921C88.206 36.1921 87.4664 36.3647 86.924 36.7098C86.3816 37.0386 86.1104 37.5727 86.1104 38.3123C86.1104 38.789 86.2419 39.1834 86.5049 39.4957C86.7843 39.7916 87.1459 40.0217 87.5897 40.186C88.0335 40.3504 88.5265 40.4737 89.0689 40.5559L90.7947 40.8024C92.1424 40.9996 93.3423 41.2955 94.3942 41.6899C95.4625 42.0844 96.3007 42.6432 96.9089 43.3664C97.517 44.0731 97.8211 45.01 97.8211 46.1769C97.8211 47.3439 97.5581 48.3136 97.0321 49.0861C96.5226 49.8586 95.7994 50.4421 94.8626 50.8365C93.9257 51.2146 92.8245 51.4036 91.559 51.4036ZM82.6836 51.1077V45.7085H84.0642L85.001 47.6315V51.1077H82.6836ZM95.5776 39.4711L94.7147 37.622V34.2938H97.0075V39.4711H95.5776Z" fill="#023E84"/>
<path d="M109.129 51.5022C107.338 51.5022 105.768 51.157 104.42 50.4667C103.073 49.7764 102.029 48.7738 101.289 47.459C100.55 46.1441 100.18 44.558 100.18 42.7007C100.18 40.8435 100.542 39.2656 101.265 37.9672C101.988 36.6523 102.99 35.6497 104.272 34.9594C105.554 34.2527 107.034 33.8993 108.71 33.8993C110.206 33.8993 111.463 34.1705 112.482 34.7129C113.501 35.2388 114.274 35.9702 114.8 36.9071C115.326 37.8439 115.589 38.9287 115.589 40.1614H114.676C114.594 39.5204 114.372 38.8958 114.011 38.2877C113.666 37.6796 113.156 37.1783 112.482 36.7838C111.808 36.3893 110.945 36.1921 109.894 36.1921C108.776 36.1921 107.814 36.4469 107.009 36.9564C106.204 37.4659 105.579 38.1809 105.135 39.1013C104.692 40.0217 104.47 41.1065 104.47 42.3556C104.47 43.6212 104.7 44.7224 105.16 45.6592C105.62 46.5796 106.269 47.2946 107.108 47.8041C107.946 48.2972 108.916 48.5437 110.017 48.5437C111.036 48.5437 111.891 48.3629 112.581 48.0013C113.271 47.6233 113.797 47.122 114.159 46.4974C114.537 45.8729 114.775 45.1826 114.874 44.4265H117.191C117.142 45.6921 116.821 46.8673 116.23 47.952C115.654 49.0204 114.783 49.8833 113.616 50.5407C112.449 51.1817 110.954 51.5022 109.129 51.5022ZM115.589 40.1614L114.701 38.2384V34.2938H117.019V40.1614H115.589Z" fill="#023E84"/>
<path d="M119.417 51.1077V49.1354H121.438V36.2661H119.466V34.2938H127.577V36.2661H125.408V49.1354H127.602V51.1077H119.417ZM130.24 51.1077V49.1354H132.434V36.2661H130.264V34.2938H138.4V36.2661H136.403V49.1354H138.425V51.1077H130.24ZM125.408 43.6622V41.4927H132.434V43.6622H125.408Z" fill="#023E84"/>
<path d="M150.11 51.4775C148.187 51.4775 146.503 51.1406 145.056 50.4667C143.61 49.7764 142.484 48.782 141.679 47.4836C140.873 46.1687 140.471 44.5744 140.471 42.7007C140.471 40.827 140.873 39.241 141.679 37.9425C142.484 36.6277 143.61 35.6333 145.056 34.9594C146.503 34.2691 148.187 33.9239 150.11 33.9239C152.05 33.9239 153.743 34.2691 155.189 34.9594C156.636 35.6333 157.753 36.6277 158.542 37.9425C159.347 39.241 159.75 40.827 159.75 42.7007C159.75 44.5744 159.347 46.1687 158.542 47.4836C157.753 48.782 156.636 49.7764 155.189 50.4667C153.743 51.1406 152.05 51.4775 150.11 51.4775ZM150.11 49.2833C151.195 49.2833 152.132 49.0286 152.921 48.5191C153.71 47.9931 154.31 47.2453 154.721 46.2756C155.132 45.2894 155.337 44.0978 155.337 42.7007C155.337 41.2873 155.132 40.0956 154.721 39.1259C154.31 38.1398 153.71 37.3919 152.921 36.8824C152.149 36.3729 151.212 36.1181 150.11 36.1181C149.026 36.1181 148.089 36.3729 147.3 36.8824C146.527 37.3919 145.928 38.1398 145.5 39.1259C145.089 40.0956 144.884 41.2873 144.884 42.7007C144.884 44.0978 145.089 45.2894 145.5 46.2756C145.928 47.2453 146.527 47.9931 147.3 48.5191C148.089 49.0286 149.026 49.2833 150.11 49.2833Z" fill="#023E84"/>
<path d="M161.802 51.1077V49.1354H163.824V36.2661H161.852V34.2938H170.505V36.2661H167.793V51.1077H161.802ZM167.793 51.1077V48.9628H177.26V51.1077H167.793ZM172.773 48.9628C173.611 48.9628 174.195 48.7738 174.524 48.3958C174.869 48.0178 175.041 47.385 175.041 46.4974V45.1168H177.26V48.9628H172.773Z" fill="#023E84"/>
<path d="M179.162 51.1077V49.1354H180.789L187.076 34.2691H190.675L196.962 49.1354H198.589V51.1077H190.133V49.1354H192.697L187.47 36.488H188.752L183.451 49.1354H185.966V51.1077H179.162ZM184.117 46.1769V44.0567H192.179V46.1769H184.117Z" fill="#023E84"/>
<path d="M200.167 51.1077V49.1354H202.189V36.2168H200.216V34.2444H206.158V49.1354H208.155V51.1077H200.167ZM213.899 51.3296C212.946 51.3296 212.165 51.1653 211.557 50.8365C210.965 50.4914 210.513 50.0147 210.201 49.4066C209.905 48.7985 209.716 48.0753 209.634 47.2371L209.535 46.1523C209.47 45.2483 209.248 44.6237 208.87 44.2786C208.508 43.917 207.933 43.7362 207.144 43.7362H206.158V43.2185L209.807 43.1938C211.154 43.1774 212.108 43.5061 212.667 44.18C213.225 44.8374 213.513 45.8071 213.529 47.0891L213.554 47.6808C213.554 48.0589 213.628 48.3547 213.776 48.5684C213.924 48.782 214.179 48.8889 214.54 48.8889C214.885 48.8889 215.132 48.782 215.28 48.5684C215.444 48.3547 215.526 48.0589 215.526 47.6808V44.3772H217.869V47.3357C217.869 48.5355 217.556 49.5052 216.932 50.2448C216.307 50.968 215.296 51.3296 213.899 51.3296ZM206.158 43.7362V41.6406H210.152C211.154 41.6406 211.935 41.4187 212.494 40.975C213.069 40.5312 213.357 39.8655 213.357 38.978C213.357 38.0905 213.069 37.433 212.494 37.0057C211.935 36.5619 211.154 36.34 210.152 36.34H206.158V34.2444H211.409C213.201 34.2444 214.639 34.6225 215.724 35.3785C216.808 36.1181 217.351 37.244 217.351 38.7561C217.351 40.2518 216.817 41.3776 215.748 42.1337C214.68 42.8898 213.266 43.2678 211.508 43.2678H209.683L209.19 43.7362H206.158Z" fill="#023E84"/>
<path d="M229.555 51.4036C228.323 51.4036 227.172 51.2063 226.104 50.8119C225.052 50.4174 224.164 49.8011 223.441 48.9628C222.735 48.1246 222.274 47.0398 222.061 45.7085H223.047C223.408 46.481 223.885 47.1302 224.477 47.6562C225.068 48.1821 225.751 48.5766 226.523 48.8396C227.312 49.0861 228.158 49.2094 229.062 49.2094C230.032 49.2094 230.78 49.0204 231.306 48.6423C231.848 48.2643 232.119 47.7055 232.119 46.9659C232.119 46.4564 231.972 46.0537 231.676 45.7578C231.396 45.462 231.01 45.2319 230.517 45.0675C230.04 44.9032 229.523 44.7799 228.964 44.6977L227.238 44.4512C225.956 44.2704 224.797 43.9663 223.762 43.539C222.743 43.1116 221.929 42.5199 221.321 41.7639C220.729 41.0078 220.434 40.0628 220.434 38.9287C220.434 37.7946 220.705 36.866 221.247 36.1428C221.789 35.4032 222.521 34.8608 223.441 34.5156C224.378 34.1705 225.43 33.9979 226.597 33.9979C227.748 33.9979 228.808 34.1869 229.777 34.5649C230.747 34.9265 231.569 35.51 232.243 36.3154C232.917 37.1207 233.36 38.1726 233.574 39.4711H232.662C232.202 38.3534 231.47 37.5316 230.468 37.0057C229.465 36.4633 228.356 36.1921 227.139 36.1921C226.203 36.1921 225.463 36.3647 224.921 36.7098C224.378 37.0386 224.107 37.5727 224.107 38.3123C224.107 38.789 224.238 39.1834 224.501 39.4957C224.781 39.7916 225.142 40.0217 225.586 40.186C226.03 40.3504 226.523 40.4737 227.065 40.5559L228.791 40.8024C230.139 40.9996 231.339 41.2955 232.391 41.6899C233.459 42.0844 234.297 42.6432 234.905 43.3664C235.513 44.0731 235.818 45.01 235.818 46.1769C235.818 47.3439 235.555 48.3136 235.029 49.0861C234.519 49.8586 233.796 50.4421 232.859 50.8365C231.922 51.2146 230.821 51.4036 229.555 51.4036ZM220.68 51.1077V45.7085H222.061L222.998 47.6315V51.1077H220.68ZM233.574 39.4711L232.711 37.622V34.2938H235.004V39.4711H233.574Z" fill="#023E84"/>
<path d="M237.978 51.1077V49.1354H240V36.2661H238.027V34.2938H246.138V36.2661H243.969V49.1354H246.163V51.1077H237.978ZM248.801 51.1077V49.1354H250.995V36.2661H248.826V34.2938H256.962V36.2661H254.965V49.1354H256.986V51.1077H248.801ZM243.969 43.6622V41.4927H250.995V43.6622H243.969Z" fill="#023E84"/>
<path d="M259.095 51.1077V49.1354H261.339V36.2661H259.144V34.2938H267.453V36.2661H265.283V49.1354H267.502V51.1077H259.095Z" fill="#023E84"/>
<path d="M269.602 51.1077V49.1354H271.623V36.2661H269.651V34.2938H275.592V49.1354H278.847V51.1077H269.602ZM275.592 44.2539V42.1337H278.921C279.94 42.1337 280.745 41.9036 281.337 41.4434C281.945 40.9668 282.249 40.2436 282.249 39.2738C282.249 38.3041 281.945 37.5809 281.337 37.1043C280.745 36.6277 279.94 36.3893 278.921 36.3893H275.592V34.2938H280.178C282.002 34.2938 283.465 34.7129 284.566 35.5511C285.684 36.3729 286.243 37.6138 286.243 39.2738C286.243 40.9339 285.684 42.183 284.566 43.0212C283.465 43.843 282.002 44.2539 280.178 44.2539H275.592Z" fill="#023E84"/>
<path d="M297.738 51.4036C296.505 51.4036 295.355 51.2063 294.286 50.8119C293.235 50.4174 292.347 49.8011 291.624 48.9628C290.917 48.1246 290.457 47.0398 290.243 45.7085H291.229C291.591 46.481 292.068 47.1302 292.659 47.6562C293.251 48.1821 293.933 48.5766 294.706 48.8396C295.494 49.0861 296.341 49.2094 297.245 49.2094C298.215 49.2094 298.962 49.0204 299.488 48.6423C300.031 48.2643 300.302 47.7055 300.302 46.9659C300.302 46.4564 300.154 46.0537 299.858 45.7578C299.579 45.462 299.193 45.2319 298.7 45.0675C298.223 44.9032 297.705 44.7799 297.146 44.6977L295.421 44.4512C294.139 44.2704 292.98 43.9663 291.944 43.539C290.925 43.1116 290.112 42.5199 289.504 41.7639C288.912 41.0078 288.616 40.0628 288.616 38.9287C288.616 37.7946 288.887 36.866 289.43 36.1428C289.972 35.4032 290.703 34.8608 291.624 34.5156C292.561 34.1705 293.613 33.9979 294.78 33.9979C295.93 33.9979 296.99 34.1869 297.96 34.5649C298.93 34.9265 299.751 35.51 300.425 36.3154C301.099 37.1207 301.543 38.1726 301.757 39.4711H300.844C300.384 38.3534 299.653 37.5316 298.65 37.0057C297.648 36.4633 296.538 36.1921 295.322 36.1921C294.385 36.1921 293.645 36.3647 293.103 36.7098C292.561 37.0386 292.289 37.5727 292.289 38.3123C292.289 38.789 292.421 39.1834 292.684 39.4957C292.963 39.7916 293.325 40.0217 293.769 40.186C294.212 40.3504 294.706 40.4737 295.248 40.5559L296.974 40.8024C298.321 40.9996 299.521 41.2955 300.573 41.6899C301.642 42.0844 302.48 42.6432 303.088 43.3664C303.696 44.0731 304 45.01 304 46.1769C304 47.3439 303.737 48.3136 303.211 49.0861C302.702 49.8586 301.978 50.4421 301.042 50.8365C300.105 51.2146 299.004 51.4036 297.738 51.4036ZM288.863 51.1077V45.7085H290.243L291.18 47.6315V51.1077H288.863ZM301.757 39.4711L300.894 37.622V34.2938H303.187V39.4711H301.757Z" fill="#023E84"/>
<path d="M87.8301 30.047H86.4465L83.787 26.2738V30.047H82.437V24.6539H83.7735L86.4465 28.35V24.6539H87.7965L87.8301 30.047Z" fill="#023E84"/>
<path d="M93.9917 27.3565C94.0145 28.0905 93.7405 28.8 93.238 29.3077C92.7013 29.8154 92.0047 30.0784 91.2967 30.0417C90.5487 30.0906 89.8178 29.797 89.2868 29.2343C88.8243 28.7328 88.5788 28.0477 88.6016 27.3443C88.5788 26.6592 88.8129 25.9986 89.2468 25.4971C89.8007 24.9099 90.5658 24.6102 91.3423 24.6591C92.0732 24.6163 92.7869 24.9038 93.3122 25.4481C93.769 25.9619 94.0145 26.647 93.9917 27.3565ZM92.9011 27.3565C92.9239 26.8733 92.7698 26.4023 92.4615 26.0537C92.1474 25.7295 91.7192 25.5582 91.2852 25.5827C90.8513 25.5521 90.4288 25.7234 90.1204 26.0537C89.8292 26.4023 89.6751 26.8611 89.6979 27.3321C89.6751 27.8153 89.8349 28.2924 90.1376 28.6532C90.463 28.9897 90.9027 29.1609 91.3538 29.1365C91.7763 29.1609 92.1817 28.9774 92.4615 28.6349C92.7584 28.2862 92.9182 27.8275 92.9011 27.3565Z" fill="#023E84"/>
<path d="M99.3858 30.047H98.1371C98.0511 29.8543 97.9996 29.6487 97.9881 29.4303V28.6144C97.9996 28.4474 97.9595 28.2804 97.8793 28.1391C97.7361 27.9656 97.5242 27.8885 97.3179 27.9207H95.9432V30.047H94.7632V24.6573H97.9194C98.2688 24.6316 98.6125 24.7537 98.8817 24.9978C99.2025 25.2676 99.3743 25.7044 99.3514 26.1541C99.3457 26.7387 99.0192 27.2526 98.5266 27.4453C98.9275 27.6637 99.1338 27.895 99.1452 28.1391V29.4624C99.1509 29.623 99.2369 29.7707 99.3629 29.8478L99.3858 30.047ZM98.2173 26.2119C98.2173 25.7815 97.9996 25.5823 97.5585 25.5823H95.9374V26.9828H97.5012C97.6788 26.9828 97.8506 26.8993 97.9709 26.7515C98.1199 26.623 98.2115 26.4239 98.2173 26.2119Z" fill="#023E84"/>
<path d="M104.009 25.5796H102.3V30.047H101.124V25.5796H99.3862V24.6539H104.009V25.5796Z" fill="#023E84"/>
<path d="M109.402 30.047H108.226V27.5979H105.955V30.047H104.779V24.6539H105.955V26.6723H108.226V24.6539H109.402V30.047Z" fill="#023E84"/>
<path d="M117.877 28.1221C117.827 28.7157 117.508 29.2542 117.009 29.5908C116.453 29.9151 115.816 30.0681 115.167 30.0437C114.436 30.0804 113.724 29.8111 113.206 29.3093C112.706 28.7646 112.45 28.0486 112.487 27.3142C112.456 26.6166 112.719 25.9312 113.206 25.4232C113.755 24.8908 114.517 24.6154 115.285 24.6583C115.935 24.6277 116.584 24.8051 117.128 25.1601C117.583 25.4538 117.864 25.9495 117.877 26.482H116.678C116.64 26.2066 116.484 25.9618 116.241 25.8088C115.972 25.6252 115.654 25.5334 115.329 25.5456C114.879 25.5273 114.448 25.7048 114.149 26.0291C113.836 26.3963 113.68 26.8736 113.712 27.351C113.687 27.8222 113.836 28.2873 114.13 28.6545C114.423 28.9727 114.842 29.1502 115.285 29.1379C115.629 29.1502 115.966 29.0523 116.241 28.8564C116.491 28.6912 116.647 28.4158 116.659 28.1221H117.877Z" fill="#023E84"/>
<path d="M123.27 24.6539L121.189 28.0533V30.047H119.957V28.0533L117.876 24.6859H119.321L120.599 26.9862L121.799 24.6859L123.27 24.6539Z" fill="#023E84"/>
<path d="M127.891 26.3817C127.901 26.8503 127.752 27.2996 127.485 27.627C127.229 27.9415 126.885 28.1148 126.525 28.1212H125.072V30.047H124.04V24.6613H126.402C126.802 24.6164 127.203 24.7769 127.511 25.1107C127.768 25.4445 127.906 25.9067 127.891 26.3817ZM126.89 26.3817C126.895 26.1827 126.833 25.9901 126.715 25.8553C126.592 25.7077 126.428 25.637 126.258 25.6563H125.026V27.2739H126.258C126.433 27.2739 126.592 27.1648 126.69 26.9786C126.823 26.7925 126.89 26.5486 126.874 26.3046L126.89 26.3817Z" fill="#023E84"/>
<path d="M133.285 30.047H132.03C131.943 29.8542 131.897 29.6421 131.88 29.43V28.6138C131.892 28.4467 131.863 28.2796 131.782 28.1382C131.684 27.984 131.494 27.9197 131.201 27.9197H129.819V30.047H128.662V24.6549H131.834C132.162 24.642 132.485 24.7641 132.744 24.9955C133.066 25.2654 133.25 25.7024 133.227 26.1523C133.216 26.7307 132.888 27.2449 132.398 27.4441C132.801 27.6626 133.003 27.894 133.003 28.1382V29.4621C132.997 29.6228 133.077 29.7771 133.21 29.8477L133.285 30.047ZM132.11 26.2101C132.11 25.7795 131.892 25.5803 131.448 25.5803H129.79V26.9814H131.391C131.575 26.9814 131.748 26.8978 131.874 26.75C132.007 26.6086 132.082 26.4158 132.082 26.2101H132.11Z" fill="#023E84"/>
<path d="M138.678 28.403C138.673 28.8452 138.499 29.2562 138.216 29.5053C137.764 29.8915 137.228 30.0845 136.682 30.0409C136.201 30.0409 135.739 29.8354 135.362 29.4617C135.039 29.1939 134.841 28.7518 134.826 28.266V24.6539H135.823V28.3407C135.823 28.5649 135.918 28.7705 136.072 28.8763C136.255 29.032 136.469 29.1068 136.692 29.1005C137.347 29.1005 137.68 28.8452 137.68 28.3407V24.6539H138.678V28.403Z" fill="#023E84"/>
<path d="M144.834 28.379C144.834 28.8723 144.567 29.3352 144.113 29.6032C143.499 29.9259 142.792 30.0782 142.085 30.0417C141.431 30.0721 140.783 29.9199 140.229 29.6032C139.782 29.3169 139.495 28.8601 139.449 28.3607H140.737C140.83 28.915 141.331 29.1951 142.211 29.1951C142.545 29.2073 142.879 29.1464 143.186 29.0185C143.399 28.9271 143.539 28.7383 143.553 28.5191C143.553 28.1415 143.232 27.904 142.625 27.8187L141.024 27.5873C140.623 27.5386 140.249 27.3741 139.949 27.1183C139.689 26.9113 139.535 26.6068 139.535 26.284C139.549 25.7968 139.836 25.3461 140.29 25.0842C140.83 24.7797 141.464 24.6335 142.098 24.6579C142.772 24.6274 143.446 24.7736 144.033 25.0842C144.46 25.3643 144.714 25.815 144.707 26.2962H143.446C143.432 26.0525 143.279 25.8272 143.045 25.7115C142.745 25.5531 142.398 25.4801 142.051 25.4922C141.284 25.4922 140.897 25.7115 140.897 26.15C140.897 26.4423 141.15 26.6189 141.677 26.7042L143.052 26.9356C143.526 26.9843 143.986 27.1244 144.393 27.3437C144.72 27.6177 144.881 27.9953 144.834 28.379Z" fill="#023E84"/>
<path d="M34.3475 76.4992C34.886 76.165 35.3873 75.7689 35.833 75.3109C35.833 74.9395 34.8984 75.1747 35.344 74.5248C35.6287 74.1102 35.9196 74.4072 36.0991 74.5248C36.7242 74.9952 37.5845 74.9952 38.2034 74.5248L38.4139 74.4196C38.7543 74.2092 38.9338 74.4196 39.0638 74.6734C39.1999 74.9271 38.9152 74.9395 38.779 75.0447C38.6429 75.15 38.451 75.1623 38.4201 75.3542C39.0142 75.8308 39.5775 76.3197 40.2026 76.7653C40.4873 76.9758 40.4563 77.0748 40.2026 77.2976C39.7817 77.6133 39.4475 78.028 39.2371 78.5169L37.1141 75.6699C36.4395 76.6601 35.6906 77.5947 34.8736 78.4736C34.886 78.0651 34.6632 77.6814 34.298 77.4957C33.7039 77.1553 33.84 76.8582 34.3475 76.4992Z" fill="#007A53"/>
<path d="M64.2726 59.751C63.4247 60.667 62.3725 61.3726 61.2028 61.812C61.0542 61.812 60.9057 61.9729 60.7695 61.8863C60.6333 61.7996 60.7695 61.5768 60.7695 61.4283C61.2646 59.5962 62.3849 57.9932 63.9322 56.8854C64.186 56.7059 64.4954 56.4707 64.8049 56.5883C65.1144 56.7059 64.8049 57.1082 64.9534 57.4053C64.9906 58.2408 64.7492 59.064 64.2726 59.751Z" fill="#007A53"/>
<path d="M9.4169 56.6007C9.74493 56.4212 10.0977 56.7059 10.3639 56.8978C10.63 57.0897 11.088 57.5353 11.447 57.8633C12.4311 58.8288 13.1304 60.0481 13.477 61.3788C13.477 61.5583 13.7865 61.973 13.2233 61.8678C11.0756 61.4159 9.48498 59.6025 9.32406 57.4177C9.37358 57.1392 9.18171 56.7492 9.4169 56.6007Z" fill="#007A53"/>
<path d="M30.2818 71.5291C29.9538 71.0216 29.5267 70.2974 29.9414 69.8951C30.3561 69.4928 31.0988 69.8951 31.6311 70.2046C32.8813 71.0897 33.8654 72.2904 34.4781 73.6891C32.838 73.5839 31.3216 72.8041 30.2818 71.5291Z" fill="#007A53"/>
<path d="M39.8066 73.6959C40.3575 72.3837 41.2364 71.2325 42.3566 70.3599C42.9322 69.9576 43.842 69.4253 44.2877 69.9142C44.7333 70.4032 44.2877 71.1892 43.7801 71.771C42.7404 72.8789 41.323 73.5659 39.8066 73.6959Z" fill="#007A53"/>
<path d="M13.5155 67.1968C15.4218 66.6274 17.4828 67.2772 18.7083 68.8431C17.5633 69.1649 16.3502 69.1649 15.2052 68.8431C14.4439 68.7688 13.7631 68.3356 13.3794 67.6733C13.3794 67.5062 13.1318 67.3329 13.5155 67.1968Z" fill="#007A53"/>
<path d="M46.0207 74.5126C46.1692 74.6488 46.3301 74.7788 46.0207 74.9583C44.3248 76.0476 42.1524 76.0476 40.4565 74.9583C41.3787 74.4507 42.3814 74.1041 43.4212 73.937C44.331 73.6895 45.3027 73.9061 46.0207 74.5126Z" fill="#007A53"/>
<path d="M60.0141 67.0792C60.3421 67.0792 60.8311 67.0792 60.9177 67.3763C61.0044 67.6734 60.6949 68.0757 60.3545 68.2985C60.1874 68.4099 60.0141 68.5089 59.8346 68.5956C58.4544 69.1526 56.9257 69.2454 55.4897 68.8617C56.5357 67.4506 58.2873 66.7635 60.0141 67.0792Z" fill="#007A53"/>
<path d="M30.7837 73.8563C31.8668 74.042 32.9066 74.4009 33.8721 74.927C32.201 75.9792 30.0781 76.0225 28.3698 75.0323C27.9675 74.8218 28.0728 74.6733 28.2956 74.469C28.9826 73.881 29.9048 73.6582 30.7837 73.8563Z" fill="#007A53"/>
<path d="M22.8481 67.6114C22.6871 67.3576 22.3901 67.0358 22.5819 66.7634C22.7738 66.4973 23.1761 66.6273 23.4856 66.6768C25.1752 66.9739 26.4873 68.3169 26.7349 70.0128C25.1443 69.8395 23.7146 68.9544 22.8481 67.6114Z" fill="#007A53"/>
<path d="M47.4136 70.0438C47.4817 69.7776 47.5745 69.5239 47.6797 69.2701C48.1625 67.8156 49.4622 66.782 50.991 66.6459C51.777 66.6459 51.8636 66.6459 51.5109 67.37C50.6567 68.874 49.1342 69.8705 47.4136 70.0438Z" fill="#007A53"/>
<path d="M16.6588 61.7688C17.3087 61.775 17.9152 62.0844 18.2928 62.6167C19.2088 63.7989 19.8525 65.1729 20.1743 66.6397C20.0877 66.6521 20.0072 66.6521 19.9206 66.6397C18.2866 65.569 17.0364 64.0093 16.3308 62.1897C16.2008 61.8121 16.3494 61.7812 16.6588 61.7688Z" fill="#007A53"/>
<path d="M55.3111 63.502C55.6577 62.8768 56.1714 62.3631 56.7966 62.0165C57.1246 61.837 57.5516 61.6761 57.8487 61.9113C58.1458 62.1465 57.7126 62.4312 57.6692 62.7097C57.6445 62.8026 57.6073 62.8954 57.5516 62.9759C56.7904 64.5665 55.5649 65.8848 54.0361 66.7575C54.2961 65.6249 54.7293 64.5232 55.3111 63.502Z" fill="#007A53"/>
<path d="M24.7173 71.6777C24.9401 71.8263 25.1505 72.0058 25.1196 72.3028C25.0886 72.5999 24.7606 72.7361 24.5254 72.7794C22.7738 73.126 20.9666 72.6247 19.6421 71.4302C20.5024 71.1888 21.3936 71.0712 22.2849 71.0712C23.139 71.0217 23.9869 71.2321 24.7173 71.6777Z" fill="#007A53"/>
<path d="M50.1732 71.3498C51.6277 70.9475 53.1688 70.9475 54.6233 71.3498C53.4597 72.4206 51.9062 72.9528 50.3341 72.8352C49.8576 72.8352 49.2386 72.8352 49.1644 72.2844C49.0901 71.7398 49.7028 71.5293 50.1732 71.3498Z" fill="#007A53"/>
<path d="M24.2102 70.3286C23.7336 70.3286 23.3932 70.3286 23.0528 70.2234C21.6911 70.1181 20.4347 69.4621 19.5683 68.4161C19.4073 68.1933 19.1102 67.9271 19.2835 67.661C19.463 67.3949 19.8158 67.5125 20.1129 67.5558C21.7964 67.8962 23.2694 68.8927 24.2102 70.3286Z" fill="#007A53"/>
<path d="M54.9209 67.6732C55.0819 67.9269 54.8157 68.1497 54.6858 68.354C54.3515 68.8677 53.8873 69.2762 53.3365 69.5423C52.2905 70.0313 51.1517 70.2974 50.0005 70.3283C50.6194 69.5237 51.3683 68.8182 52.2101 68.2488C52.8042 67.8526 53.485 67.6051 54.1968 67.5246C54.4629 67.506 54.791 67.4194 54.9209 67.6732Z" fill="#007A53"/>
<path d="M59.9717 63.3096C59.4085 65.0302 57.9973 66.3423 56.2334 66.7694C56.5243 65.94 56.939 65.154 57.4527 64.4422C57.9045 63.6562 58.641 63.0744 59.5137 62.8268C59.9408 62.7897 60.1017 62.8206 59.9717 63.3096Z" fill="#007A53"/>
<path d="M14.3134 63.5019C14.1029 62.8644 14.3134 62.7468 14.9385 62.9386C15.4336 63.0872 15.8669 63.3781 16.2011 63.768C16.9872 64.6283 17.5999 65.6371 17.996 66.7326C16.3001 66.3489 14.9199 65.1358 14.3134 63.5019Z" fill="#007A53"/>
<path d="M61.0048 63.3098C61.0357 63.2417 61.0914 63.186 61.1533 63.1488C62.026 62.3752 63.1463 61.9419 64.316 61.9296C64.5822 61.9296 64.5512 62.0781 64.4955 62.2576C64.0623 63.9349 63.5609 64.2877 61.5309 64.3372C61.3514 64.3372 60.9243 64.5167 60.7758 64.2196C60.6211 63.9163 60.8562 63.6069 61.0048 63.3098Z" fill="#007A53"/>
<path d="M9.86323 61.9419C11.1073 61.911 12.308 62.3875 13.1869 63.2602C13.422 63.5264 13.6758 63.9101 13.5149 64.2257C13.354 64.5352 12.9393 64.3124 12.6236 64.331C10.7421 64.2876 10.0737 63.7987 9.74563 62.3133C9.71469 62.1647 9.56615 61.9172 9.86323 61.9419Z" fill="#007A53"/>
<path d="M43.5024 72.9527C44.3689 71.9686 45.582 71.3496 46.888 71.2197C47.4079 71.2197 48.2558 71.133 48.3734 71.591C48.491 72.049 47.8102 72.5689 47.2036 72.8103C45.9967 73.1631 44.7217 73.2188 43.5024 72.9527Z" fill="#007A53"/>
<path d="M26.0786 72.1112C25.7691 71.6965 25.7072 71.4427 26.3757 71.3128C28.0467 71.0714 29.724 71.6965 30.8257 72.9715C29.8045 73.1386 28.7585 73.1386 27.7373 72.9715C27.0998 72.9096 26.4994 72.6001 26.0786 72.1112Z" fill="#007A53"/>
<path d="M13.8428 57.8633C15.3282 58.3399 15.223 59.4354 14.9383 61.8244C13.8118 60.7413 14.0903 59.3487 13.8428 57.8633Z" fill="#007A53"/>
<path d="M60.4288 57.8633C60.1317 59.3487 60.4288 60.8279 59.1538 62.0472C59.3766 60.4628 58.4854 58.8598 60.4288 57.8633Z" fill="#007A53"/>
<path d="M60.8563 65.5935C60.7944 66.1505 60.3178 66.559 59.7608 66.5404C59.3585 66.5404 59.1976 66.4228 59.1852 66.1567C59.1728 65.8906 59.8846 65.2345 60.4478 65.2655C60.6521 65.284 60.8563 65.284 60.8563 65.5935Z" fill="#007A53"/>
<path d="M15.0557 66.1445C15.0557 66.5282 14.7462 66.5158 14.5048 66.5468C13.9292 66.5901 13.4217 66.1569 13.3784 65.5813C13.3784 65.2532 13.6012 65.2718 13.824 65.2718C14.3872 65.2842 15.0557 65.7608 15.0557 66.1445Z" fill="#007A53"/>
<path d="M52.8776 67.3142C52.6671 67.339 52.4753 67.1904 52.4505 66.9738C52.4505 66.9552 52.4443 66.9305 52.4505 66.9119C52.4876 66.4168 52.8404 66.0083 53.3232 65.9031C53.5336 65.9031 53.6636 65.9031 53.577 66.2744C53.4903 66.6458 53.5274 67.209 52.8776 67.3142Z" fill="#007A53"/>
<path d="M48.1007 73.2498C48.4101 73.2498 48.4596 73.4107 48.3978 73.8439C48.3359 74.2772 48.3235 74.599 47.7169 74.6609C47.4199 74.6609 47.2837 74.4505 47.3332 74.1843C47.3456 73.7325 47.6612 73.3488 48.1007 73.2498Z" fill="#007A53"/>
<path d="M26.0794 73.2373C26.6426 73.3239 26.8221 73.7448 26.9087 74.2152C26.9954 74.6856 26.8035 74.7227 26.5064 74.6732C25.9123 74.568 25.9123 74.0357 25.7947 73.652C25.6833 73.2682 25.7575 73.194 26.0794 73.2373Z" fill="#007A53"/>
<path d="M21.4065 67.3145C20.769 67.3145 20.7814 66.7389 20.6823 66.3181C20.5771 65.9034 20.6823 65.86 20.9794 65.9034C21.2765 65.9467 21.6478 66.4109 21.7778 66.807C21.8459 67.0112 21.7345 67.2279 21.5303 67.2898C21.4931 67.3083 21.4498 67.3145 21.4065 67.3145Z" fill="#007A53"/>
<path d="M45.7227 70.5079C45.5371 70.5698 45.3328 70.4646 45.2771 70.279C45.2585 70.2232 45.2524 70.1675 45.2647 70.1057C45.2833 69.6415 45.5928 69.233 46.0384 69.0968C46.3231 69.0968 46.3974 69.233 46.3664 69.4558C46.3293 69.6724 46.3045 70.3842 45.7227 70.5079Z" fill="#007A53"/>
<path d="M28.5612 70.5078C27.967 70.4026 27.9361 69.9322 27.8804 69.4866C27.8804 69.2762 27.8804 69.0534 28.1651 69.1152C28.6231 69.2143 28.9511 69.6104 28.9635 70.0808C29.0068 70.3593 28.883 70.5635 28.5612 70.5078Z" fill="#007A53"/>
<path d="M19.3144 69.5117C19.7477 69.5117 19.8467 69.9697 19.9395 70.2977C20.0076 70.4648 19.921 70.6567 19.7539 70.7186C19.7105 70.7371 19.661 70.7433 19.6115 70.7433C19.1783 70.6567 19.1535 70.2544 19.0792 69.914C19.005 69.5736 18.9431 69.4498 19.3144 69.5117Z" fill="#007A53"/>
<path d="M54.3319 70.3408C54.3319 69.9571 54.5114 69.5857 54.9694 69.5114C55.4274 69.4372 55.1179 69.7466 55.1612 69.9137C55.2046 70.0747 55.1613 70.6874 54.6104 70.7431C54.4495 70.7431 54.3133 70.6131 54.3071 70.4522C54.3071 70.4151 54.3133 70.3779 54.3319 70.3408Z" fill="#007A53"/>
<path d="M9.15192 60.3699C3.80441 52.3919 0.975936 42.9967 1.01926 33.3971C1.01926 30.154 1.32871 26.917 1.95382 23.7357C1.95382 23.7357 1.95382 23.7357 1.95382 23.6305C1.95382 23.4015 1.76816 23.2158 1.53916 23.2158C1.52678 23.2158 1.52058 23.2158 1.5082 23.2158C1.32871 23.222 1.17397 23.352 1.13684 23.5253C0.499347 26.7746 0.171318 30.0797 0.171318 33.3909C0.0970471 43.2009 2.98744 52.8066 8.46492 60.9455C8.5949 61.1435 8.86722 61.1931 9.05909 61.0631C9.18287 60.9764 9.25714 60.8341 9.25095 60.6793C9.25714 60.5679 9.22 60.4627 9.15192 60.3699Z" fill="#007A53"/>
<path d="M68.4565 41.8085C68.4565 41.5733 68.2646 41.3752 68.0233 41.3752C67.8128 41.3752 67.6395 41.5362 67.621 41.7466C66.5626 47.3293 64.3035 52.6149 61.0046 57.2383C60.8437 57.424 60.8561 57.7025 61.0418 57.8696C61.1222 57.9439 61.2275 57.981 61.3327 57.981C61.475 57.9748 61.605 57.9005 61.6731 57.7706C65.0648 53.0172 67.3796 47.5769 68.4565 41.8332C68.4565 41.8394 68.4565 41.8271 68.4565 41.8085Z" fill="#007A53"/>
<path d="M64.6137 8.28124C64.5456 8.15745 64.4156 8.07699 64.2733 8.0708C64.0257 8.0708 63.8276 8.26886 63.8276 8.51643C63.8276 8.60927 63.8648 8.7021 63.9329 8.77019C68.7172 16.0735 71.2424 24.627 71.2052 33.3539C71.2424 40.9481 69.3484 48.4309 65.703 55.0905C65.6473 55.1586 65.6102 55.2391 65.5978 55.3257C65.604 55.5671 65.802 55.7652 66.0434 55.7713C66.1734 55.7713 66.2972 55.7033 66.3714 55.5919C70.0974 48.7651 72.0284 41.109 71.9975 33.3353C72.0346 24.4476 69.4661 15.7331 64.6137 8.28124Z" fill="#007A53"/>
<path d="M73.5127 23.5315C73.5127 23.2963 73.3208 23.0983 73.0794 23.0983C72.8442 23.0983 72.6462 23.2901 72.6462 23.5315C73.2775 26.7561 73.5993 30.0364 73.6117 33.3229C73.686 42.8667 70.8823 52.2063 65.5719 60.1347C65.479 60.2152 65.4233 60.3266 65.4233 60.4442C65.4233 60.6794 65.6152 60.8774 65.8566 60.8774C65.9804 60.8774 66.0918 60.8217 66.166 60.7289C71.6497 52.6395 74.5339 43.0772 74.4473 33.3105C74.4534 30.0302 74.1378 26.7561 73.5127 23.5315Z" fill="#007A53"/>
<path d="M10.8164 8.55994C10.8226 8.32475 10.6369 8.12051 10.4017 8.11432C10.3893 8.11432 10.3831 8.11432 10.3708 8.11432C10.2346 8.10813 10.1046 8.17002 10.0118 8.27524C5.12847 15.7395 2.54754 24.4725 2.59087 33.3912C2.55373 41.1649 4.49097 48.821 8.21689 55.6477C8.28498 55.7901 8.42733 55.8891 8.58825 55.9015C8.83582 55.9015 9.04008 55.7034 9.04627 55.4559C9.04627 55.3321 8.99055 55.2145 8.89771 55.1278H8.92867C5.28939 48.462 3.40166 40.9854 3.43879 33.3912C3.39547 24.6891 5.9145 16.1727 10.6802 8.89416C10.7731 8.8137 10.8226 8.68992 10.8164 8.55994Z" fill="#007A53"/>
<path d="M23.17 0.75521L22.5449 0.00012207C12.1593 6.1708 5.33257 18.6917 5.33257 33.3973C5.2583 42.1056 7.91348 50.622 12.9268 57.7458C12.9577 57.8015 12.9887 57.851 13.032 57.8944C13.1124 57.9562 13.2115 57.9934 13.3167 57.9996C13.5643 57.9996 13.7623 57.8015 13.7623 57.5539C13.7623 57.5478 13.7623 57.5416 13.7623 57.5416C13.7685 57.4178 13.719 57.3002 13.6262 57.2135C8.7119 50.2444 6.1124 41.9013 6.20524 33.3726C6.18667 19.1558 13.1001 6.79592 23.17 0.75521Z" fill="#007A53"/>
<path d="M73.3956 21.8109C73.5504 22.0894 73.5504 22.4237 73.3956 22.7022C72.5353 24.1752 71.5017 25.543 70.3258 26.7809C70.7343 26.7376 71.1489 26.7376 71.5574 26.7809C71.8669 26.8118 72.1392 27.0099 72.2568 27.3008C72.3868 27.5855 72.3435 27.9197 72.1392 28.1611C70.8704 29.6837 69.4098 31.0267 67.7944 32.1655C68.2833 32.0665 68.7908 32.0665 69.2798 32.1655C69.5892 32.3017 69.7997 32.5988 69.8306 32.9392C69.9173 33.3167 69.7997 33.7129 69.5212 33.979C68.0543 35.0559 66.4575 35.9534 64.774 36.6466C65.1392 36.758 65.492 36.9065 65.8262 37.0922C66.0923 37.2345 66.2656 37.5131 66.2718 37.8163C66.278 38.1382 66.1047 38.4291 65.8262 38.59C64.4584 39.2956 63.0225 39.8588 61.537 40.2673C61.8341 40.4282 62.125 40.6139 62.3973 40.8181H62.5026C62.8801 41.1028 62.9606 41.6413 62.6697 42.025C62.5768 42.1488 62.4531 42.2478 62.3107 42.3035C60.9986 42.8049 59.6369 43.17 58.2444 43.3867C58.6033 43.6095 58.9375 43.8756 59.2408 44.1727C59.4698 44.3893 59.5627 44.7173 59.476 45.0206C59.3832 45.3239 59.1294 45.5467 58.8262 45.6148C57.3593 45.9119 55.8677 46.0542 54.3761 46.0295H52.9959C52.9959 46.5555 52.8473 47.0693 52.5626 47.5149C52.377 47.8243 52.1108 48.0719 51.789 48.239C51.4486 48.4185 51.1948 48.728 51.0896 49.0993C50.9225 50.0834 50.1674 50.8571 49.1895 51.0551C48.7934 51.1418 48.453 51.3832 48.2425 51.7236C47.865 52.3982 47.147 52.8252 46.3734 52.8376C45.8783 52.8624 45.4388 53.1533 45.216 53.5927C44.7394 54.5397 43.7491 55.1153 42.6908 55.0781H42.4061H42.0966C42.0966 55.1153 42.0966 55.1586 42.0966 55.1957C43.8049 55.6723 49.01 57.4239 52.2717 58.5194L52.4945 58.5936V58.8041C52.674 59.5158 52.5007 60.2709 52.0365 60.8341C51.6404 61.2055 51.0834 61.354 50.5511 61.2364C50.4892 61.6449 50.2726 62.0101 49.9446 62.2577C49.2761 62.6352 48.4715 62.6662 47.7783 62.3443C47.6917 63.0499 47.308 63.6874 46.7262 64.0959C45.8349 64.5291 44.7889 64.492 43.9348 63.9907C43.4521 64.8076 42.6598 65.4018 41.7376 65.637C41.0135 65.7236 40.2832 65.5008 39.7323 65.0119C39.0639 65.7546 38.0922 66.1569 37.0895 66.095H36.8358C35.8393 66.1507 34.8676 65.7546 34.1929 65.0119C33.6483 65.5008 32.918 65.7236 32.1876 65.637C31.2654 65.4018 30.4794 64.8076 29.9905 63.9907C29.1363 64.4858 28.0903 64.5291 27.1991 64.0959C26.6297 63.6688 26.2707 63.0251 26.2026 62.3134C25.5218 62.66 24.7172 62.66 24.0364 62.3134C23.7022 62.072 23.4917 61.7006 23.4422 61.2921C22.9099 61.4097 22.3591 61.2612 21.9568 60.8898C21.5236 60.3266 21.3874 59.5963 21.5854 58.9155V58.705L21.7959 58.6308C25.0576 57.5353 30.2999 55.7651 31.971 55.3071H31.7606C30.7084 55.3381 29.7305 54.7625 29.2539 53.8217C29.0311 53.3823 28.5917 53.0976 28.0965 53.0666C27.3043 53.0604 26.5802 52.621 26.215 51.9216C26.0046 51.5812 25.658 51.3398 25.2681 51.2532C24.284 51.0613 23.5227 50.2815 23.3556 49.2974C23.2627 48.926 23.0152 48.6104 22.6748 48.4371C21.8702 47.9605 21.3998 47.0693 21.4555 46.1347H19.8525C18.3609 46.1594 16.8631 46.0171 15.4024 45.72C15.0929 45.6643 14.8454 45.4291 14.7649 45.1258C14.6783 44.8226 14.7649 44.5007 14.9877 44.2779C15.291 43.9746 15.6314 43.7147 15.9966 43.4919C14.5916 43.2691 13.2176 42.9039 11.8869 42.3964C11.5898 42.2788 11.3856 42.0126 11.3546 41.697C11.3113 41.3875 11.4475 41.0781 11.7136 40.9109H11.8002C12.0788 40.7067 12.3697 40.521 12.6729 40.3601C11.1751 39.9207 9.72684 39.3141 8.35283 38.5652C8.07431 38.4105 7.89483 38.1134 7.89483 37.7916C7.90721 37.4883 8.0805 37.216 8.35283 37.0798C8.68086 36.8941 9.02747 36.7456 9.39264 36.6342C7.70916 35.9472 6.11851 35.0497 4.65785 33.9666C4.36695 33.7067 4.24317 33.3106 4.32982 32.9268C4.35458 32.5864 4.56502 32.2893 4.88067 32.1532C5.36962 32.0541 5.87714 32.0541 6.36609 32.1532C4.73832 31.0267 3.26527 29.6898 1.99028 28.1797C1.64369 27.8516 1.63132 27.307 1.95935 26.9604C2.12027 26.7933 2.3369 26.6942 2.5659 26.6942C2.97439 26.6509 3.38906 26.6509 3.79755 26.6942C2.6216 25.4812 1.59419 24.1381 0.727692 22.6898C0.49869 22.2751 0.647224 21.749 1.06809 21.52C1.19807 21.4458 1.35281 21.4086 1.50135 21.4148C1.81081 21.4458 2.12027 21.4953 2.42354 21.5634C1.81699 20.7402 1.2971 19.8613 0.863856 18.9391C0.715314 18.5492 0.789584 18.1159 1.05572 17.7941C1.34662 17.4537 1.81699 17.3237 2.24405 17.4661C2.39259 17.5094 2.53495 17.5713 2.6773 17.6456C2.12027 16.7419 1.62513 15.8012 1.21045 14.8295C1.00621 14.3158 1.25996 13.7402 1.76748 13.5421C2.07075 13.4183 2.41735 13.4616 2.68967 13.6473C2.77632 13.6473 2.95582 13.7525 3.17863 13.8701C0.746255 10.2618 -0.132629 7.56328 0.0159134 5.92932C0.0592381 5.50845 0.37489 5.16804 0.789569 5.09996C1.21044 5.0195 1.62512 5.24231 1.79842 5.63224C4.9735 12.459 11.4722 18.1531 13.0443 19.4776C13.0443 18.4068 13.0443 17.398 13.1309 16.7915C13.1619 16.4077 13.4652 16.1106 13.8427 16.0797C14.2141 16.0487 14.5545 16.2963 14.6411 16.6553C15.6933 20.9259 18.07 26.7314 23.4113 30.1293C27.4281 32.506 30.7703 35.8667 33.1284 39.8897C33.2336 39.7288 33.3079 39.5493 33.4131 39.4132C33.6978 37.4326 35.536 36.0586 37.5104 36.3495C39.101 36.5785 40.345 37.8287 40.5741 39.4132C40.7535 39.6545 40.9145 39.9145 41.0506 40.1868C43.3964 36.0153 46.8066 32.5431 50.9349 30.1293C56.2762 26.7314 58.6528 20.9321 59.705 16.6553C59.7855 16.2839 60.1321 16.0364 60.5034 16.0797C60.881 16.1168 61.1842 16.4139 61.2152 16.7915C61.2152 17.3671 61.2895 18.2769 61.3019 19.2857C63.1834 17.6827 69.2674 12.1928 72.3125 5.63842C72.492 5.2485 72.9129 5.03188 73.3337 5.10615C73.7484 5.18042 74.0579 5.52083 74.0888 5.93551C74.2498 7.58185 73.3771 10.2804 70.9571 13.8144C71.1799 13.6968 71.3594 13.6349 71.446 13.5916C71.7864 13.344 72.2444 13.344 72.591 13.5916C72.95 13.8577 73.0924 14.3281 72.9314 14.749C72.5044 15.7269 72.0092 16.6677 71.446 17.5651C71.576 17.4908 71.7184 17.4351 71.8607 17.3856C72.4673 17.2061 73.0986 17.5589 73.2781 18.1655C73.3461 18.3945 73.3399 18.642 73.2533 18.871C72.82 19.7994 72.294 20.6783 71.6812 21.4953C71.9783 21.4272 72.2816 21.3777 72.5848 21.3467C72.9376 21.3405 73.2471 21.52 73.3956 21.8109Z" fill="#DDB57E"/>
<path d="M39.213 40.8306C38.786 40.8553 38.4641 41.2143 38.4827 41.6414C38.5013 41.9384 38.6869 42.1984 38.9593 42.3098C39.2687 42.3098 39.5844 42.087 39.6587 41.6723C39.7701 41.3195 39.5782 40.942 39.2316 40.8306C39.2254 40.8368 39.2192 40.8368 39.213 40.8306Z" fill="#023E84"/>
<path d="M34.9111 40.8305C34.5645 40.9419 34.3664 41.3071 34.4654 41.6599C34.5397 42.0746 34.8492 42.3593 35.1772 42.2974C35.499 42.1983 35.6971 41.8703 35.6352 41.5423C35.5486 41.0533 35.2329 40.7748 34.9111 40.8305Z" fill="#023E84"/>
<path d="M37.7703 42.4336H36.2849C36.0869 42.4336 35.9321 42.5945 35.9321 42.7926C35.9321 42.8235 35.9383 42.8483 35.9445 42.8792C36.1054 43.6219 36.4954 45.0764 37.04 45.0764C37.5847 45.0764 37.9622 43.591 38.1231 42.8792C38.1726 42.6874 38.055 42.4955 37.8694 42.446C37.8384 42.4398 37.8075 42.4336 37.7703 42.4336Z" fill="#023E84"/>
<path d="M72.6217 21.4272C72.3185 21.4582 72.0152 21.5077 71.7181 21.5758C72.3308 20.7588 72.8569 19.8737 73.2902 18.9515C73.5068 18.3574 73.1973 17.7013 72.6032 17.4909C72.3742 17.4104 72.1266 17.4042 71.8976 17.4661C71.7552 17.5156 71.6129 17.5713 71.4829 17.6456C72.0461 16.742 72.5413 15.8012 72.9683 14.8295C73.1293 14.4086 72.9869 13.9382 72.6279 13.6721C72.2875 13.4245 71.8295 13.4245 71.4829 13.6721C71.3963 13.6721 71.2168 13.7773 70.994 13.8949C73.414 10.2742 74.2867 7.5757 74.1257 5.94174C74.0886 5.52706 73.7791 5.18665 73.3706 5.11238C72.9498 5.03811 72.5289 5.25473 72.3494 5.64465C69.3105 12.2053 63.2265 17.6951 61.3387 19.2919C61.3387 18.2955 61.3387 17.3795 61.2521 16.7977C61.215 16.4201 60.9179 16.1169 60.5403 16.0859C60.1628 16.0488 59.8224 16.2963 59.7419 16.6615C58.6897 20.9321 56.3131 26.7376 50.9718 30.1355C46.8435 32.5555 43.4332 36.0277 41.0875 40.193C40.9514 39.9207 40.7904 39.6669 40.611 39.4194C40.3263 37.4388 38.488 36.0648 36.5137 36.3557C34.923 36.5847 33.679 37.8349 33.45 39.4194C33.3448 39.5555 33.2705 39.7288 33.1653 39.896C30.8072 35.8668 27.465 32.5122 23.4482 30.1355C18.1068 26.7376 15.7302 20.9383 14.678 16.6615C14.5913 16.2963 14.2509 16.0488 13.8796 16.0859C13.4959 16.1169 13.1988 16.4201 13.1678 16.7977C13.1678 17.4042 13.0812 18.4131 13.0812 19.4838C11.5091 18.1655 5.01038 12.4652 1.8353 5.63846C1.662 5.24854 1.24732 5.02573 0.826449 5.10619C0.40558 5.17427 0.0837463 5.51468 0.0404216 5.93555C-0.10812 7.56951 0.764574 10.268 3.18457 13.8021C2.96176 13.6845 2.78226 13.6226 2.69561 13.5793C2.2438 13.2698 1.62487 13.3874 1.31541 13.8392C1.12973 14.1115 1.0926 14.4581 1.2102 14.7614C1.63107 15.7393 2.13239 16.6801 2.69561 17.5775C2.55945 17.5033 2.41709 17.4414 2.26236 17.398C1.82292 17.2681 1.34636 17.429 1.07403 17.8003C0.77695 18.1346 0.702681 18.6111 0.882169 19.0196C1.32161 19.948 1.85387 20.8269 2.47279 21.6439C2.16952 21.5758 1.86006 21.5263 1.5506 21.4953C1.07403 21.4706 0.671726 21.8295 0.640779 22.3061C0.63459 22.467 0.665545 22.6279 0.746005 22.7703C1.60631 24.2433 2.63991 25.6112 3.81587 26.849C3.40738 26.8057 2.9927 26.8057 2.58421 26.849C2.11383 26.9047 1.77341 27.3318 1.8353 27.8084C1.85387 27.9631 1.91576 28.1054 2.0086 28.2292C3.27739 29.7518 4.73807 31.0948 6.35346 32.2337C5.86451 32.1346 5.357 32.1346 4.86805 32.2337C4.55858 32.3698 4.34814 32.6669 4.31719 33.0073C4.23055 33.3849 4.35433 33.7872 4.64522 34.0471C6.10589 35.1302 7.69652 36.0277 9.38 36.7147C9.02102 36.8261 8.66824 36.9746 8.34021 37.1603C8.06169 37.2965 7.8884 37.5812 7.88221 37.8844C7.88221 38.2063 8.06169 38.5034 8.34021 38.6581C9.70803 39.3637 11.1439 39.9269 12.6294 40.3354C12.3261 40.4963 12.029 40.6758 11.7567 40.8862H11.67C11.4101 41.0595 11.2677 41.3628 11.311 41.6723C11.342 41.9879 11.5524 42.2541 11.8433 42.3717C13.1616 42.873 14.5295 43.2381 15.922 43.4548C15.5569 43.6776 15.2165 43.9375 14.9132 44.2408C14.6904 44.4636 14.6037 44.7855 14.6904 45.0887C14.7708 45.392 15.0184 45.621 15.3279 45.6829C16.7947 45.98 18.2863 46.1223 19.7779 46.0976H21.381C21.3253 47.0322 21.7894 47.9172 22.6002 48.4C22.9406 48.5733 23.1882 48.8889 23.2811 49.2603C23.4667 50.2567 24.2528 51.0366 25.2554 51.2037C25.6515 51.2904 25.9919 51.5317 26.2024 51.8721C26.5799 52.553 27.2917 52.98 28.0715 52.9862C28.5667 53.0172 29.0061 53.3019 29.2289 53.7413C29.7055 54.6821 30.6834 55.2577 31.7356 55.2267H32.0141C30.3368 55.6847 25.1007 57.4548 21.839 58.5503L21.6285 58.6246V58.835C21.4243 59.5282 21.5666 60.271 22.0123 60.8404C22.4084 61.2117 22.9654 61.3603 23.4977 61.2427C23.5472 61.6512 23.7576 62.0225 24.0919 62.2639C24.7603 62.6414 25.5649 62.6724 26.2581 62.3505C26.3447 63.0561 26.7285 63.6936 27.3102 64.1021C28.2015 64.5353 29.2475 64.4982 30.1016 63.9969C30.5844 64.8139 31.3766 65.408 32.2988 65.6432C33.0229 65.7361 33.7533 65.5071 34.3041 65.0181C34.9787 65.7608 35.9443 66.1569 36.9469 66.1012H37.1264C38.1229 66.1631 39.0946 65.7608 39.7692 65.0181C40.3139 65.5009 41.0442 65.7299 41.7745 65.6432C42.6967 65.408 43.4828 64.8139 43.9717 63.9969C44.8258 64.492 45.8718 64.5353 46.7631 64.1021C47.3634 63.6936 47.7595 63.0437 47.8462 62.3196C48.527 62.6662 49.3316 62.6662 50.0124 62.3196C50.3404 62.072 50.5571 61.7007 50.619 61.2984C51.1512 61.4222 51.7083 61.2674 52.1044 60.8961C52.5314 60.3328 52.6738 59.6025 52.4881 58.9217V58.7113L52.2653 58.637C49.0036 57.5415 43.7922 55.7899 42.0902 55.3134C42.0902 55.2762 42.0902 55.2329 42.0902 55.1958H42.3996H42.6843C43.7427 55.2329 44.7268 54.6573 45.2096 53.7104C45.4324 53.2647 45.8718 52.98 46.367 52.9553C47.1097 52.9491 47.7967 52.5591 48.1928 51.934C48.4032 51.5936 48.7498 51.3522 49.1397 51.2656C50.1176 51.0675 50.8665 50.2877 51.0398 49.3098C51.145 48.9384 51.3988 48.629 51.7392 48.4495C52.0549 48.2824 52.321 48.0286 52.5129 47.7253C52.7914 47.2797 52.9399 46.766 52.9461 46.2399H54.3263C55.8179 46.2647 57.3157 46.1223 58.7764 45.8252C59.0858 45.7572 59.3334 45.5344 59.4263 45.2311C59.5067 44.9278 59.4139 44.5998 59.1911 44.3832C58.8878 44.0861 58.5536 43.8199 58.1946 43.5971C59.6243 43.3557 61.0231 42.9534 62.3662 42.4088C62.8056 42.2293 63.016 41.728 62.8365 41.2885C62.7808 41.1462 62.6818 41.0224 62.558 40.9296H62.4528C62.1805 40.7253 61.8896 40.5458 61.5925 40.3787C63.0655 39.9269 64.4891 39.3265 65.8383 38.5838C66.1168 38.4291 66.284 38.132 66.284 37.8102C66.2778 37.5069 66.1045 37.2284 65.8383 37.086C65.5041 36.9004 65.1513 36.7518 64.7862 36.6404C66.4696 35.9472 68.0665 35.0498 69.5333 33.9728C69.818 33.7067 69.9356 33.3106 69.8428 32.933C69.818 32.5926 69.6076 32.2956 69.2919 32.1594C68.803 32.0604 68.2954 32.0604 67.8065 32.1594C69.4343 31.0391 70.9073 29.7023 72.1823 28.1983C72.3865 27.9569 72.4361 27.6227 72.2999 27.338C72.1823 27.0471 71.9162 26.849 71.6005 26.8181C71.192 26.7747 70.7773 26.7747 70.3689 26.8181C71.5448 25.5802 72.5784 24.2124 73.4387 22.7394C73.5935 22.4608 73.5935 22.1266 73.4387 21.8481C73.2592 21.5572 72.9498 21.3963 72.6217 21.4272ZM61.3326 20.3441C62.1186 19.7066 69.5642 13.5359 73.0859 5.96649C73.1292 5.92936 73.1912 5.92936 73.2345 5.96649C73.2531 5.99125 73.2531 6.02839 73.2345 6.05314C73.383 7.53856 72.3618 10.8622 68.6359 15.5908C66.3211 18.4254 63.7773 21.0621 61.0231 23.4697C61.215 22.4423 61.3202 21.3901 61.3326 20.3441ZM60.8436 27.7588C61.5058 26.7438 61.642 25.475 61.215 24.3486C64.1487 21.8295 66.8472 19.0506 69.2857 16.055C70.0037 15.2999 70.8702 14.6933 71.8233 14.2725H71.9409C72.0028 14.2229 72.0895 14.2229 72.1514 14.2725C72.1947 14.3344 72.1947 14.4148 72.1514 14.4829C69.5086 19.7933 65.6155 24.3733 60.8003 27.8331L60.8436 27.7588ZM70.2079 19.4343C70.7526 18.8587 71.4148 18.4131 72.1514 18.1284C72.3123 18.0665 72.4918 18.1407 72.5537 18.3017C72.5846 18.3821 72.5846 18.4688 72.5475 18.543C71.8481 19.9542 70.963 21.2663 69.9232 22.4423C67.1443 25.5121 64.0311 28.2602 60.6517 30.6492C60.7693 30.0736 60.7693 29.4733 60.6517 28.8977C64.3096 26.2858 67.5342 23.1107 70.2079 19.49V19.4343ZM0.845035 6.29452C0.838846 6.1955 0.838846 6.09647 0.845035 5.99744C0.845035 5.99744 0.857403 5.93555 0.950242 5.93555C0.987377 5.9046 1.04308 5.9046 1.08641 5.93555C4.78139 13.9011 12.8398 20.3132 12.9574 20.3689C12.9945 20.4122 13.0502 20.437 13.1059 20.4431C13.044 21.551 13.1369 22.6589 13.3906 23.7358C10.5064 21.2539 7.85125 18.5183 5.44982 15.5598C1.94051 11.0974 0.845035 7.9223 0.845035 6.29452ZM1.97146 14.4643C1.92814 14.4024 1.92814 14.3158 1.97146 14.2539C2.02098 14.1982 2.10763 14.1982 2.16333 14.2477C2.16333 14.2477 2.16334 14.2477 2.16952 14.2539H2.28712C3.24646 14.6686 4.10676 15.2751 4.82472 16.0364C7.27566 19.0444 9.98655 21.8295 12.9264 24.3609C12.9698 24.4043 13.0255 24.429 13.0874 24.4352C12.7098 25.5431 12.8645 26.7624 13.502 27.7465C13.5577 27.8393 13.6072 27.9383 13.6506 28.0435C8.6868 24.559 4.67617 19.8923 1.97146 14.4643ZM1.63106 18.6049C1.56298 18.444 1.63725 18.2645 1.79817 18.1964C1.86625 18.1655 1.94671 18.1655 2.01479 18.1903C2.7575 18.475 3.42594 18.9206 3.9706 19.4962C6.62579 23.1478 9.838 26.3601 13.4958 29.0091C13.5701 29.0524 13.6568 29.0771 13.7496 29.0833C13.6691 29.7208 13.7125 30.3645 13.8858 30.9834C10.3765 28.5572 7.16425 25.735 4.29863 22.5722C3.22789 21.3839 2.32426 20.047 1.63106 18.6049ZM1.51347 22.2566C2.33045 22.2318 3.12886 22.5165 3.7416 23.055C6.91049 26.5396 10.4817 29.6404 14.3809 32.2832C14.4614 32.3079 14.5418 32.3079 14.6161 32.2832C14.7647 32.4812 14.938 32.6607 15.136 32.8155C15.4702 33.1249 15.6249 33.5829 15.5507 34.0347C15.5074 34.2514 15.4764 34.468 15.464 34.6846C6.05019 29.2566 2.53469 24.231 1.51347 22.2566ZM2.68322 27.5979C3.48783 27.437 4.32338 27.5917 5.01039 28.0312H5.14655C8.24736 30.9896 11.7072 33.5458 15.4455 35.6439C15.4702 35.8853 15.5321 36.1267 15.6249 36.3557C13.2607 35.3283 10.9768 34.1276 8.7982 32.7474C6.4958 31.3734 4.41623 29.6527 2.63991 27.6412L2.68322 27.5979ZM5.20225 33.323C5.14655 33.193 5.14655 33.0506 5.20225 32.9207C6.29156 32.8278 7.38088 33.0259 8.36497 33.4963C10.9397 35.1364 13.6568 36.529 16.4976 37.6493C16.541 37.6616 16.5905 37.6616 16.6338 37.6493C16.7204 37.804 16.7823 37.9773 16.8133 38.1568C12.6417 37.3831 8.67442 35.7492 5.16512 33.3663L5.20225 33.323ZM8.7982 37.8659C9.47902 37.4079 10.3022 37.2284 11.113 37.3584C12.9698 38.0268 14.8575 38.59 16.7824 39.0356C16.8133 39.5184 16.9371 39.9826 17.1537 40.4158C16.1758 40.2549 15.2722 40.0754 14.4676 39.896C12.487 39.4813 10.5683 38.8128 8.75489 37.9092L8.7982 37.8659ZM12.2085 41.6042L12.2518 41.5423C12.8212 41.0162 13.5825 40.7315 14.3562 40.7563C15.5445 41.0286 16.739 41.2452 17.9459 41.3937H18.0945C18.1997 41.3937 18.2863 41.5113 18.4039 41.5547C18.8681 41.7527 19.1962 42.1736 19.2766 42.6687C19.2766 42.8049 19.2766 42.9349 19.3818 43.0834C16.9123 42.972 14.4799 42.4831 12.159 41.6413L12.2085 41.6042ZM15.5754 44.8659C16.1015 44.2408 16.8442 43.8385 17.655 43.7395H17.7726C18.4101 43.8137 19.0476 43.8756 19.7284 43.9004C19.9822 44.3275 20.3412 44.6864 20.7682 44.9402C20.9229 45.0206 21.0529 45.1259 21.1705 45.2496C19.2828 45.3858 17.3889 45.2744 15.5321 44.9092L15.5754 44.8659ZM29.984 53.4133C29.625 52.7015 28.9071 52.2435 28.1149 52.2249C27.6259 52.2187 27.1803 51.934 26.9575 51.5008C26.6232 50.9685 26.091 50.5848 25.472 50.4486C24.8098 50.3063 24.3147 49.7678 24.228 49.0994C24.0671 48.5052 23.6648 48.0039 23.1139 47.7192C22.5322 47.3911 22.2041 46.7413 22.2846 46.0728C22.2598 45.3053 21.8328 44.5998 21.1581 44.2346C20.5392 43.888 20.1369 43.2505 20.0874 42.5449C19.9698 41.7651 19.4623 41.1029 18.7381 40.7934C17.9459 40.3601 17.5189 39.4689 17.6674 38.5838C17.7169 37.8906 17.4198 37.2222 16.869 36.8013C16.2501 36.1267 16.0458 35.1612 16.3491 34.2947C16.4914 33.5643 16.2315 32.8093 15.6683 32.3203C14.7646 31.4971 14.3624 30.2531 14.6161 29.0586C14.7399 28.4582 14.6099 27.8331 14.2448 27.338C13.7063 26.3167 13.7063 25.0975 14.2448 24.0762C14.3314 23.8844 14.3314 23.6616 14.2448 23.4697C13.9229 21.4025 13.8548 19.3043 14.0343 17.2247C15.1793 21.6748 17.655 27.3875 23.0706 30.8287C27.0998 33.2178 30.4111 36.6404 32.6701 40.7377C31.5499 43.2443 30.9929 45.9738 31.0362 48.7218C31.03 50.6281 31.2776 52.5344 31.7789 54.3726C31.0486 54.4159 30.3492 54.0508 29.984 53.4133ZM41.7498 52.9676C41.756 53.0048 41.756 53.0357 41.7498 53.0729C41.6074 53.6918 41.4279 54.2983 41.2175 54.8987C41.1123 55.2267 40.9823 55.5052 40.8585 55.8023C40.6914 55.7899 40.5243 55.7899 40.351 55.8023C39.2431 55.7961 38.3395 56.6812 38.3333 57.7891C38.3333 57.8138 38.3333 57.8386 38.3333 57.8633C38.3147 58.0243 38.3147 58.1914 38.3333 58.3523C38.389 58.5751 38.618 58.7051 38.8408 58.6494C39.0574 58.5999 39.1874 58.3832 39.1379 58.1666V58.1604C39.1255 58.0614 39.1255 57.9624 39.1379 57.8633C39.1379 57.1887 39.6826 56.6441 40.3572 56.6441C41.0318 56.6441 41.5765 57.1887 41.5765 57.8633C41.5827 57.9624 41.5827 58.0614 41.5765 58.1604C41.5208 58.3709 41.6446 58.5937 41.8612 58.6494H41.9788C42.1645 58.637 42.3254 58.5132 42.3811 58.3399C42.3935 58.179 42.3935 58.0119 42.3811 57.851C42.3935 57.2197 42.0964 56.6193 41.5827 56.2479L41.6693 56.0251C42.9629 56.3841 48.1804 58.1171 51.6402 59.2745C51.7083 59.6149 51.6402 59.9677 51.4483 60.2524C51.1946 60.5061 50.7056 60.4443 50.3219 60.3576L49.771 60.2214V60.7847C49.7958 61.0879 49.6782 61.3788 49.4616 61.5831C49.1335 61.8183 48.4651 61.744 47.6048 61.3912L47.0292 61.156V61.7626C47.0292 61.7626 47.0292 62.9633 46.3051 63.3965C45.5809 63.8298 44.6897 63.3965 43.9593 63.0994L43.6004 62.9199L43.4209 63.2789C43.4209 63.2789 42.6967 64.6591 41.626 64.7643C40.9699 64.8015 40.3324 64.523 39.9177 64.0093L39.4102 63.5017L39.2307 64.1826C39.2307 64.1826 38.9213 65.179 36.9779 65.2224C35.0344 65.2657 34.725 64.2259 34.725 64.2011L34.564 63.477L34.0318 64.0093C33.6171 64.523 32.9858 64.8077 32.3235 64.7643C31.2714 64.6034 30.541 63.2789 30.541 63.2789L30.3492 62.9199L29.9902 63.0994C29.2661 63.4584 28.282 63.7988 27.663 63.3965C27.0379 62.9942 26.9203 61.7811 26.9203 61.7626V61.156L26.3447 61.3912C25.4968 61.7502 24.8593 61.8245 24.5065 61.5831C24.2837 61.3788 24.1661 61.0817 24.1785 60.7847V60.2091L23.6277 60.3576C23.2563 60.4443 22.755 60.5061 22.5136 60.2524C22.3155 59.9677 22.2413 59.6149 22.3032 59.2745C25.7629 58.1047 31.0114 56.3098 32.274 56.0128L32.3607 56.2479C31.9151 56.6626 31.6737 57.2568 31.7108 57.8633C31.6984 58.0243 31.6984 58.1914 31.7108 58.3523C31.7665 58.5751 31.9955 58.7051 32.2183 58.6494C32.4349 58.5999 32.5773 58.3832 32.5278 58.1604C32.5154 58.0614 32.5154 57.9624 32.5278 57.8633C32.5278 57.2135 33.0539 56.6936 33.6976 56.6936C34.3351 56.6688 34.8735 57.164 34.8983 57.8014C34.9045 57.9252 34.8859 58.0552 34.8549 58.179C34.7992 58.3956 34.9292 58.6122 35.1458 58.6679H35.152H35.2572C35.4429 58.6618 35.6039 58.538 35.6596 58.3585C35.6781 58.1976 35.6781 58.0304 35.6596 57.8695C35.6596 56.7617 34.7621 55.8642 33.6542 55.8642C33.648 55.8642 33.6419 55.8642 33.6419 55.8642C33.4809 55.8518 33.3138 55.8518 33.1529 55.8642C33.0663 55.629 32.9425 55.4062 32.8558 55.1524C32.6578 54.6759 32.5092 54.1745 32.4102 53.667C32.0079 52.0516 31.8098 50.3929 31.816 48.728C31.7975 46.4937 32.1688 44.2779 32.9115 42.1674C32.9053 42.1426 32.9053 42.1179 32.9115 42.0931C32.9549 42.0189 32.9858 41.9384 33.0167 41.8579C33.0229 41.8146 33.0229 41.7713 33.0167 41.7218C33.1653 41.338 33.3448 40.9667 33.549 40.6077C33.6976 40.3292 33.8585 40.0631 34.038 39.8093V39.735V39.6174C34.2298 38.0825 35.6348 36.9932 37.1697 37.1851C38.4385 37.346 39.4412 38.3424 39.6021 39.6174V39.7227V39.7969C39.8125 40.094 39.992 40.4035 40.1529 40.7315C40.3943 41.2143 40.6048 41.7094 40.7904 42.2169V42.3778C40.8152 42.4397 40.8461 42.4954 40.8771 42.5573V42.6316C41.5208 44.6122 41.8426 46.6794 41.8426 48.759C41.9478 50.1453 41.9169 51.5317 41.756 52.9119V52.9676H41.7498ZM52.1353 46.1285C52.2096 46.7598 51.9125 47.3726 51.3802 47.7192C50.8356 48.0039 50.4271 48.5052 50.2662 49.0994C50.1733 49.7802 49.6596 50.3186 48.9912 50.4486C48.3785 50.591 47.84 50.9685 47.5058 51.5008C47.283 51.934 46.8373 52.2126 46.3484 52.2249C45.55 52.2373 44.8196 52.6953 44.4668 53.4133C44.0831 54.156 43.2599 54.5707 42.4368 54.4345H42.3192C42.8267 52.6025 43.0743 50.7086 43.0619 48.8085C43.0928 46.1966 42.5853 43.6033 41.5765 41.1957C43.8294 36.9065 47.252 33.3415 51.4421 30.9154C56.8701 27.4741 59.352 21.6872 60.4908 17.3114C60.6765 19.3972 60.6022 21.4953 60.268 23.5563C60.1937 23.7544 60.1937 23.971 60.268 24.1629C60.8127 25.1841 60.8127 26.4096 60.268 27.4246C59.909 27.9198 59.7667 28.5449 59.8843 29.1452C60.1504 30.3398 59.7543 31.5838 58.8445 32.407C58.2813 32.8959 58.0213 33.6448 58.1637 34.3813C58.4422 35.2416 58.2317 36.1824 57.6128 36.8447C57.52 36.9065 57.4395 36.987 57.3776 37.0798C57.2724 37.117 57.192 37.2098 57.1672 37.315C56.9134 37.6988 56.7896 38.1568 56.8082 38.621C56.9691 39.5246 56.5359 40.4344 55.7251 40.8739C55.0009 41.1895 54.4872 41.8456 54.3573 42.6254C54.3201 43.331 53.924 43.9685 53.3051 44.3151C52.6243 44.6431 52.1663 45.2992 52.0858 46.0481L52.1353 46.1285ZM58.6897 44.9711C56.9072 45.3177 55.0876 45.4477 53.2742 45.3425C53.3794 45.2001 53.5155 45.0887 53.6765 45.0145C54.1159 44.7607 54.4873 44.3955 54.7472 43.9623C55.3228 43.9623 55.917 43.8756 56.4987 43.8137H56.604C57.3962 43.919 58.1265 44.3089 58.6526 44.9092L58.6897 44.9711ZM61.9143 41.5423L62.001 41.6599C59.7543 42.4645 57.3962 42.9411 55.0133 43.071C55.0628 42.9411 55.0938 42.8049 55.1 42.6687C55.1866 42.1674 55.5208 41.7527 55.9912 41.5547L56.2883 41.3937C57.5942 41.2019 58.764 40.9914 59.8038 40.7563C60.5836 40.7315 61.3387 41.0162 61.9143 41.5423ZM65.4113 37.9216C63.5854 38.8438 61.642 39.5184 59.6367 39.9393C58.894 40.1002 58.077 40.2673 57.1858 40.4158C57.4024 39.9826 57.5262 39.5184 57.5571 39.0356C59.4139 38.6086 61.2459 38.0639 63.0346 37.4017C63.864 37.247 64.7181 37.4326 65.4113 37.9092V37.9216ZM68.9577 32.9826C69.001 33.1125 69.001 33.2549 68.9577 33.3849C65.5165 35.7492 61.6296 37.3893 57.5324 38.1939C57.5571 38.0082 57.6252 37.8287 57.7428 37.674C60.5218 36.5414 63.1955 35.1612 65.7393 33.5643C66.7358 33.0754 67.8498 32.865 68.9577 32.9702V32.9826ZM71.5262 27.6598C69.7685 29.7023 67.7013 31.4538 65.3989 32.8526C63.3007 34.1709 61.1097 35.3283 58.8383 36.3248C58.9126 36.0958 58.9621 35.8668 58.9868 35.6254C62.6323 33.5644 66.0178 31.0701 69.0629 28.1921H69.1805C69.8613 27.7155 70.7031 27.5175 71.5262 27.6412V27.6598ZM58.9621 34.6722C58.9745 34.4989 58.9745 34.3256 58.9621 34.1523C58.8816 33.7005 59.0425 33.2425 59.3767 32.933C59.5872 32.7412 59.7852 32.5369 59.9524 32.3079C63.8392 29.6713 67.398 26.5829 70.5607 23.1107C71.1487 22.5599 71.9224 22.2504 72.727 22.2504C71.6438 24.1938 68.1717 29.1762 58.9559 34.6537V34.6722H58.9621Z" fill="#023E84"/>
</svg>
